Coordinates
version=1
nRows=65
nColumns=12
inDegrees=yes

Units are S.I. units (second, meters, Newtons, ...)
Angles are in degrees

endheader
time	SC_y	SC_z	SC_x	AC_y	AC_z	AC_x	GH_y	GH_z	GH_yy	EL_x	PS_y
       0.0              -52.54          1.853          78.41          47.61         -17.53         -19.22           94.9          37.22          69.84          35.35          80.57
  0.003156              -52.54          1.856           78.4          47.61         -17.53         -19.22           94.9          37.22          69.83          35.35          80.58
  0.006312              -52.53          1.859           78.4          47.61         -17.53         -19.22          94.89          37.22          69.82          35.35          80.58
  0.009468              -52.53          1.863          78.39          47.61         -17.53         -19.22          94.89          37.22          69.81          35.35          80.59
   0.01262              -52.52          1.867          78.38           47.6         -17.53         -19.22          94.89          37.22           69.8          35.35          80.59
   0.01578              -52.52          1.871          78.38           47.6         -17.53         -19.22          94.89          37.21          69.79          35.35           80.6
   0.01894              -52.51          1.875          78.37           47.6         -17.53         -19.22          94.89          37.21          69.78          35.35           80.6
   0.02209              -52.51           1.88          78.36           47.6         -17.53         -19.22          94.88          37.21          69.77          35.35          80.61
   0.02525               -52.5          1.885          78.35           47.6         -17.53         -19.22          94.88          37.21          69.75          35.35          80.62
    0.0284              -52.49          1.891          78.34           47.6         -17.53         -19.22          94.88          37.21          69.74          35.34          80.63
   0.03156              -52.49          1.897          78.33           47.6         -17.53         -19.22          94.87          37.21          69.73          35.34          80.63
   0.03472              -52.48          1.903          78.32           47.6         -17.53         -19.22          94.87          37.21          69.71          35.34          80.64
   0.03787              -52.47           1.91          78.31           47.6         -17.53         -19.22          94.87          37.21          69.69          35.34          80.65
   0.04103              -52.46          1.917          78.29          47.59         -17.53         -19.22          94.86           37.2          69.67          35.34          80.66
   0.04418              -52.45          1.925          78.28          47.59         -17.53         -19.22          94.86           37.2          69.65          35.33          80.68
   0.04734              -52.44          1.933          78.27          47.59         -17.53         -19.22          94.85           37.2          69.63          35.33          80.69
    0.0505              -52.43          1.943          78.25          47.59         -17.53         -19.22          94.85           37.2          69.61          35.33           80.7
   0.05365              -52.42          1.953          78.23          47.59         -17.53         -19.22          94.84           37.2          69.58          35.33          80.72
   0.05681              -52.41          1.964          78.21          47.59         -17.53         -19.22          94.84          37.19          69.56          35.32          80.73
   0.05996              -52.39          1.976          78.19          47.58         -17.53         -19.22          94.83          37.19          69.53          35.32          80.75
   0.06312              -52.38           1.99          78.16          47.58         -17.53         -19.22          94.82          37.19          69.49          35.32          80.77
   0.06628              -52.36          2.004          78.14          47.58         -17.53         -19.22          94.81          37.19          69.45          35.31          80.79
   0.06943              -52.34          2.021          78.11          47.58         -17.53         -19.22          94.81          37.18          69.41          35.31          80.82
   0.07259              -52.32          2.039          78.08          47.57         -17.53         -19.22           94.8          37.18          69.37           35.3          80.84
   0.07574               -52.3          2.059          78.04          47.57         -17.53         -19.22          94.78          37.17          69.32           35.3          80.87
    0.0789              -52.27          2.081           78.0          47.56         -17.53         -19.22          94.77          37.17          69.26          35.29           80.9
   0.08206              -52.24          2.106          77.96          47.56         -17.53         -19.22          94.76          37.16           69.2          35.29          80.94
   0.08521              -52.21          2.134           77.9          47.55         -17.53         -19.22          94.74          37.16          69.13          35.28          80.98
   0.08837              -52.17          2.166          77.85          47.55         -17.53         -19.22          94.73          37.15          69.05          35.27          81.03
   0.09152              -52.13          2.202          77.78          47.54         -17.53         -19.22          94.71          37.14          68.96          35.26          81.08
   0.09468              -52.08          2.243          77.71          47.53         -17.53         -19.22          94.68          37.13          68.85          35.25          81.14
   0.09783              -52.02          2.291          77.62          47.52         -17.53         -19.22          94.66          37.12          68.73          35.24          81.21
     0.101              -51.96          2.345          77.53          47.51         -17.53         -19.22          94.63          37.11          68.59          35.22          81.29
    0.1041              -51.88          2.409          77.41           47.5         -17.54         -19.22          94.59           37.1          68.43           35.2          81.38
    0.1073               -51.8          2.483          77.28          47.49         -17.54         -19.21          94.55          37.08          68.25          35.18          81.49
    0.1105              -51.69          2.571          77.12          47.47         -17.54         -19.21           94.5          37.06          68.03          35.16          81.62
    0.1136              -51.57          2.675          76.93          47.45         -17.54         -19.21          94.45          37.04          67.76          35.13          81.77
    0.1168              -51.43          2.799          76.71          47.43         -17.54         -19.21          94.38          37.02          67.45           35.1          81.95
    0.1199              -51.25           2.95          76.44           47.4         -17.54         -19.21           94.3          36.98          67.07          35.06          82.17
    0.1231              -51.03          3.134          76.11          47.36         -17.54         -19.21          94.19          36.94           66.6          35.01          82.44
    0.1262              -50.76          3.362           75.7          47.32         -17.54         -19.21          94.07           36.9          66.03          34.95          82.77
    0.1294              -50.43          3.646          75.19          47.27         -17.54          -19.2          93.91          36.83          65.32          34.87          83.19
    0.1326              -50.01          4.003          74.55           47.2         -17.55          -19.2          93.72          36.76          64.42          34.77          83.71
    0.1357              -49.47          4.457          73.73          47.11         -17.55          -19.2          93.47          36.66          63.27          34.65          84.37
    0.1389              -48.79          5.038          72.69           47.0         -17.55         -19.19          93.15          36.54           61.8          34.49          85.22
     0.142              -47.91          5.784          71.35          46.86         -17.56         -19.18          92.74          36.38          59.92          34.29          86.31
    0.1452              -46.79          6.737          69.64          46.68         -17.57         -19.17          92.22          36.17          57.52          34.04           87.7
    0.1483              -45.38          7.936          67.48          46.45         -17.57         -19.16          91.56          35.92           54.5          33.71          89.45
    0.1515              -43.66          9.396          64.86          46.17         -17.59         -19.15          90.76           35.6          50.82          33.32          91.58
    0.1546              -41.67          11.09          61.82          45.85          -17.6         -19.13          89.83          35.24          46.55          32.86          94.05
    0.1578              -39.51          12.92          58.53           45.5         -17.61         -19.11          88.82          34.85          41.93          32.37          96.72
     0.161              -37.36          14.75          55.23          45.15         -17.62          -19.1          87.82          34.46          37.31          31.87          99.39
    0.1641              -35.36          16.45          52.19          44.83         -17.64         -19.08          86.89          34.09          33.04          31.42          101.9
    0.1673              -33.65          17.91          49.57          44.55         -17.65         -19.07          86.09          33.78          29.35          31.02          104.0
    0.1704              -32.24          19.11          47.42          44.33         -17.65         -19.06          85.43          33.53          26.33           30.7          105.7
    0.1736              -31.11          20.06          45.71          44.15         -17.66         -19.05          84.91          33.32          23.93          30.44          107.1
    0.1767              -30.24           20.8          44.37           44.0         -17.67         -19.04           84.5          33.16          22.05          30.24          108.2
    0.1799              -29.55          21.39          43.32          43.89         -17.67         -19.03          84.18          33.04          20.58          30.08          109.1
     0.183              -29.02          21.84          42.51          43.81         -17.67         -19.03          83.93          32.94          19.44          29.96          109.7
    0.1862               -28.6           22.2          41.86          43.74         -17.68         -19.03          83.74          32.86          18.54          29.86          110.3
    0.1894              -28.26          22.48          41.35          43.69         -17.68         -19.02          83.58           32.8          17.82          29.79          110.7
    0.1925               -28.0          22.71          40.95          43.64         -17.68         -19.02          83.45          32.75          17.25          29.73          111.0
    0.1957              -27.78          22.89          40.61          43.61         -17.68         -19.02          83.35          32.72          16.78          29.68          111.3
    0.1988               -27.6          23.04          40.34          43.58         -17.68         -19.02          83.27          32.68           16.4          29.64          111.5
     0.202              -27.45          23.17          40.12          43.55         -17.68         -19.02           83.2          32.66          16.09           29.6          111.7
